<mxfile host="65bd71144e">
    <diagram id="eK6jYwn2tgoUjkk_UH2E" name="Page-1">
        <mxGraphModel dx="1323" dy="597" grid="1" gridSize="10" guides="1" tooltips="1" connect="1" arrows="1" fold="1" page="1" pageScale="1" pageWidth="850" pageHeight="1100" math="0" shadow="0">
            <root>
                <mxCell id="0"/>
                <mxCell id="1" parent="0"/>
                <mxCell id="3" value="Menu" style="strokeWidth=1;shadow=0;dashed=0;align=center;html=1;shape=mxgraph.mockup.containers.window;align=left;verticalAlign=top;spacingLeft=8;strokeColor2=#008cff;strokeColor3=#c4c4c4;fontColor=#666666;mainText=;fontSize=17;labelBackgroundColor=none;whiteSpace=wrap;movable=0;resizable=0;rotatable=0;deletable=0;editable=0;locked=1;connectable=0;" parent="1" vertex="1">
                    <mxGeometry x="237" y="380" width="330" height="420" as="geometry"/>
                </mxCell>
                <mxCell id="23" value="Lemonade Menu" style="text;strokeColor=none;fillColor=none;html=1;fontSize=24;fontStyle=1;verticalAlign=middle;align=center;" parent="1" vertex="1">
                    <mxGeometry x="352" y="440" width="100" height="40" as="geometry"/>
                </mxCell>
                <mxCell id="25" value="" style="html=1;shadow=0;dashed=0;shape=mxgraph.bootstrap.checkbox2;labelPosition=right;verticalLabelPosition=middle;align=left;verticalAlign=middle;gradientColor=#DEDEDE;fillColor=#EDEDED;checked=0;spacing=5;checkedFill=#0085FC;checkedStroke=#ffffff;sketch=0;" parent="1" vertex="1">
                    <mxGeometry x="254" y="512" width="30" height="30" as="geometry"/>
                </mxCell>
                <mxCell id="26" value="" style="html=1;shadow=0;dashed=0;shape=mxgraph.bootstrap.checkbox2;labelPosition=right;verticalLabelPosition=middle;align=left;verticalAlign=middle;gradientColor=#DEDEDE;fillColor=#EDEDED;checked=0;spacing=5;checkedFill=#0085FC;checkedStroke=#ffffff;sketch=0;" parent="1" vertex="1">
                    <mxGeometry x="254" y="562" width="30" height="30" as="geometry"/>
                </mxCell>
                <mxCell id="27" value="" style="html=1;shadow=0;dashed=0;shape=mxgraph.bootstrap.checkbox2;labelPosition=right;verticalLabelPosition=middle;align=left;verticalAlign=middle;gradientColor=#DEDEDE;fillColor=#EDEDED;checked=0;spacing=5;checkedFill=#0085FC;checkedStroke=#ffffff;sketch=0;" parent="1" vertex="1">
                    <mxGeometry x="254" y="612" width="30" height="30" as="geometry"/>
                </mxCell>
                <mxCell id="29" value="50g Lemons" style="text;html=1;align=center;verticalAlign=middle;whiteSpace=wrap;rounded=0;" parent="1" vertex="1">
                    <mxGeometry x="385" y="508" width="80" height="30" as="geometry"/>
                </mxCell>
                <mxCell id="30" value="0x" style="text;strokeColor=none;fillColor=none;align=left;verticalAlign=top;spacingLeft=4;spacingRight=4;overflow=hidden;rotatable=0;points=[[0,0.5],[1,0.5]];portConstraint=eastwest;whiteSpace=wrap;html=1;" parent="1" vertex="1">
                    <mxGeometry x="315" y="512" width="60" height="26" as="geometry"/>
                </mxCell>
                <mxCell id="31" value="0x" style="text;strokeColor=none;fillColor=none;align=left;verticalAlign=top;spacingLeft=4;spacingRight=4;overflow=hidden;rotatable=0;points=[[0,0.5],[1,0.5]];portConstraint=eastwest;whiteSpace=wrap;html=1;" parent="1" vertex="1">
                    <mxGeometry x="316" y="562" width="60" height="26" as="geometry"/>
                </mxCell>
                <mxCell id="32" value="0x" style="text;strokeColor=none;fillColor=none;align=left;verticalAlign=top;spacingLeft=4;spacingRight=4;overflow=hidden;rotatable=0;points=[[0,0.5],[1,0.5]];portConstraint=eastwest;whiteSpace=wrap;html=1;" parent="1" vertex="1">
                    <mxGeometry x="315" y="610" width="70" height="26" as="geometry"/>
                </mxCell>
                <mxCell id="33" value="" style="dashed=0;labelPosition=right;align=left;shape=mxgraph.gmdl.checkbox;strokeColor=none;fillColor=#676767;strokeWidth=2;aspect=fixed;sketch=0;html=1;" parent="1" vertex="1">
                    <mxGeometry x="256" y="514" width="26" height="26" as="geometry"/>
                </mxCell>
                <mxCell id="34" value="" style="dashed=0;labelPosition=right;align=left;shape=mxgraph.gmdl.checkbox;strokeColor=none;fillColor=#676767;strokeWidth=2;aspect=fixed;sketch=0;html=1;" parent="1" vertex="1">
                    <mxGeometry x="256" y="564" width="26" height="26" as="geometry"/>
                </mxCell>
                <mxCell id="35" value="" style="dashed=0;labelPosition=right;align=left;shape=mxgraph.gmdl.checkbox;strokeColor=none;fillColor=#676767;strokeWidth=2;aspect=fixed;sketch=0;html=1;" parent="1" vertex="1">
                    <mxGeometry x="256" y="614" width="26" height="26" as="geometry"/>
                </mxCell>
                <mxCell id="36" value="Ice Cubes" style="text;html=1;align=center;verticalAlign=middle;whiteSpace=wrap;rounded=0;" parent="1" vertex="1">
                    <mxGeometry x="380" y="558" width="80" height="30" as="geometry"/>
                </mxCell>
                <mxCell id="37" value="250ml Lemonade" style="text;html=1;align=center;verticalAlign=middle;whiteSpace=wrap;rounded=0;" parent="1" vertex="1">
                    <mxGeometry x="375" y="604" width="100" height="30" as="geometry"/>
                </mxCell>
                <mxCell id="38" value="(Total)" style="strokeWidth=1;shadow=0;dashed=0;align=center;html=1;shape=mxgraph.mockup.buttons.button;strokeColor=#666666;fontColor=#ffffff;mainText=;buttonStyle=round;fontSize=17;fontStyle=1;fillColor=#008cff;whiteSpace=wrap;" parent="1" vertex="1">
                    <mxGeometry x="327" y="710" width="150" height="50" as="geometry"/>
                </mxCell>
                <mxCell id="43" value="$(Changes)" style="text;html=1;align=center;verticalAlign=middle;whiteSpace=wrap;rounded=0;" parent="1" vertex="1">
                    <mxGeometry x="500" y="508" width="60" height="30" as="geometry"/>
                </mxCell>
                <mxCell id="44" value="&lt;span style=&quot;color: rgb(0, 0, 0);&quot;&gt;$(Changes)&lt;/span&gt;" style="text;html=1;align=center;verticalAlign=middle;whiteSpace=wrap;rounded=0;" parent="1" vertex="1">
                    <mxGeometry x="500" y="560" width="60" height="30" as="geometry"/>
                </mxCell>
                <mxCell id="45" value="&lt;span style=&quot;color: rgb(0, 0, 0);&quot;&gt;$(Changes)&lt;/span&gt;" style="text;html=1;align=center;verticalAlign=middle;whiteSpace=wrap;rounded=0;" parent="1" vertex="1">
                    <mxGeometry x="500" y="606" width="60" height="30" as="geometry"/>
                </mxCell>
                <mxCell id="46" value="" style="endArrow=none;html=1;" parent="1" edge="1">
                    <mxGeometry width="50" height="50" relative="1" as="geometry">
                        <mxPoint x="480" y="836.4" as="sourcePoint"/>
                        <mxPoint x="480" y="317.6" as="targetPoint"/>
                    </mxGeometry>
                </mxCell>
                <mxCell id="48" value="" style="endArrow=none;html=1;" parent="1" edge="1">
                    <mxGeometry width="50" height="50" relative="1" as="geometry">
                        <mxPoint x="375" y="836.4" as="sourcePoint"/>
                        <mxPoint x="375" y="317.6" as="targetPoint"/>
                    </mxGeometry>
                </mxCell>
                <mxCell id="50" value="" style="endArrow=none;html=1;" parent="1" edge="1">
                    <mxGeometry width="50" height="50" relative="1" as="geometry">
                        <mxPoint x="200" y="690" as="sourcePoint"/>
                        <mxPoint x="602.5999857584635" y="691.2" as="targetPoint"/>
                    </mxGeometry>
                </mxCell>
                <mxCell id="51" value="" style="endArrow=none;html=1;" parent="1" edge="1">
                    <mxGeometry width="50" height="50" relative="1" as="geometry">
                        <mxPoint x="182" y="600" as="sourcePoint"/>
                        <mxPoint x="584.5999857584635" y="601.2" as="targetPoint"/>
                    </mxGeometry>
                </mxCell>
                <mxCell id="52" value="" style="endArrow=none;html=1;" parent="1" edge="1">
                    <mxGeometry width="50" height="50" relative="1" as="geometry">
                        <mxPoint x="173.7" y="550" as="sourcePoint"/>
                        <mxPoint x="576.2999857584634" y="551.2" as="targetPoint"/>
                    </mxGeometry>
                </mxCell>
                <mxCell id="53" value="" style="endArrow=none;html=1;" parent="1" edge="1">
                    <mxGeometry width="50" height="50" relative="1" as="geometry">
                        <mxPoint x="173.7" y="489.99999999999994" as="sourcePoint"/>
                        <mxPoint x="576.2999857584634" y="491.2" as="targetPoint"/>
                    </mxGeometry>
                </mxCell>
                <mxCell id="54" value="Column 0" style="text;html=1;align=center;verticalAlign=middle;whiteSpace=wrap;rounded=0;" parent="1" vertex="1">
                    <mxGeometry x="237" y="330" width="60" height="30" as="geometry"/>
                </mxCell>
                <mxCell id="55" value="Column 1" style="text;html=1;align=center;verticalAlign=middle;whiteSpace=wrap;rounded=0;" parent="1" vertex="1">
                    <mxGeometry x="311" y="340" width="60" height="30" as="geometry"/>
                </mxCell>
                <mxCell id="56" value="Column 2" style="text;html=1;align=center;verticalAlign=middle;whiteSpace=wrap;rounded=0;" parent="1" vertex="1">
                    <mxGeometry x="395" y="340" width="60" height="30" as="geometry"/>
                </mxCell>
                <mxCell id="58" value="Row 0" style="text;html=1;align=center;verticalAlign=middle;whiteSpace=wrap;rounded=0;" parent="1" vertex="1">
                    <mxGeometry x="140" y="440" width="60" height="30" as="geometry"/>
                </mxCell>
                <mxCell id="59" value="Row 1" style="text;html=1;align=center;verticalAlign=middle;whiteSpace=wrap;rounded=0;" parent="1" vertex="1">
                    <mxGeometry x="140" y="508" width="60" height="30" as="geometry"/>
                </mxCell>
                <mxCell id="60" value="Row 2" style="text;html=1;align=center;verticalAlign=middle;whiteSpace=wrap;rounded=0;" parent="1" vertex="1">
                    <mxGeometry x="140" y="562" width="60" height="30" as="geometry"/>
                </mxCell>
                <mxCell id="61" value="Row 3" style="text;html=1;align=center;verticalAlign=middle;whiteSpace=wrap;rounded=0;" parent="1" vertex="1">
                    <mxGeometry x="140" y="636" width="60" height="30" as="geometry"/>
                </mxCell>
                <mxCell id="62" value="Row 4" style="text;html=1;align=center;verticalAlign=middle;whiteSpace=wrap;rounded=0;" parent="1" vertex="1">
                    <mxGeometry x="140" y="720" width="60" height="30" as="geometry"/>
                </mxCell>
                <mxCell id="63" value="" style="endArrow=none;html=1;" edge="1" parent="1">
                    <mxGeometry width="50" height="50" relative="1" as="geometry">
                        <mxPoint x="302.68" y="849.4" as="sourcePoint"/>
                        <mxPoint x="302.68" y="330.6" as="targetPoint"/>
                    </mxGeometry>
                </mxCell>
                <mxCell id="64" value="Column 3" style="text;html=1;align=center;verticalAlign=middle;whiteSpace=wrap;rounded=0;" vertex="1" parent="1">
                    <mxGeometry x="490" y="340" width="60" height="30" as="geometry"/>
                </mxCell>
            </root>
        </mxGraphModel>
    </diagram>
</mxfile>